<mxfile host="app.diagrams.net" modified="2023-11-30T14:08:42.822Z" agent="Mozilla/5.0 (Windows NT 10.0; Win64; x64) AppleWebKit/537.36 (KHTML, like Gecko) Chrome/119.0.0.0 Safari/537.36" version="22.0.0" etag="cGQwLAPCSJUPBSqLckDR" type="github">
  <diagram name="Page-1" id="SbTFiDUzDe9gfObufDF8">
    <mxGraphModel>
      <root>
        <mxCell id="0" />
        <mxCell id="1" parent="0" />
      </root>
    </mxGraphModel>
  </diagram>
</mxfile>
